<svg width="178" height="165" viewBox="0 0 178 165" fill="none" xmlns="http://www.w3.org/2000/svg">
<path d="M178 104.131C178 145.805 132.421 161.479 91 161.479C49.5786 161.479 0 150.836 0 109.162C0 67.4879 67.5786 0.000244141 109 0.000244141C150.421 0.000244141 178 62.4574 178 104.131Z" fill="url(#paint0_linear_20_16)"/>
<mask id="mask0_20_16" style="mask-type:alpha" maskUnits="userSpaceOnUse" x="14" y="14" width="150" height="152">
<rect x="14" y="14.0857" width="150" height="150.915" fill="#C4C4C4"/>
</mask>
<g mask="url(#mask0_20_16)">
<path d="M163.462 13.002H78.3452V144.458H163.462V13.002Z" fill="#102B6E"/>
<path d="M163.462 13.002H78.3452V144.458H163.462V13.002Z" stroke="#102B6E" stroke-width="0.5" stroke-miterlimit="22.93"/>
<path fill-rule="evenodd" clip-rule="evenodd" d="M69.9419 134.289L153.36 132.275L162.929 19.0007H79.5477L69.9419 134.289Z" fill="#A5DBFD"/>
<path fill-rule="evenodd" clip-rule="evenodd" d="M78.0131 12.4031C73.1409 55.8564 62.5471 116.068 55.3015 136.788C84.6051 137.177 114.066 137.177 143.215 137.177C149.642 104.93 157.442 46.6592 163.626 12.5482L78.0131 12.4031Z" fill="#FDFDFD"/>
<path d="M151.858 24.4822H87.1339L75.5169 94.8478H140.867L151.858 24.4822Z" fill="url(#paint1_linear_20_16)"/>
<path fill-rule="evenodd" clip-rule="evenodd" d="M86.7928 53.1782L108.895 39.3721L112.398 45.0257L133.499 31.1807L132.404 28.8684L139.532 29.2754L136.654 35.3567L135.021 33.1171L111.412 48.7196L107.774 42.7964L88.1076 55.2416L86.7928 53.1782Z" fill="#51BBEB"/>
<path d="M88.5338 144.457H84.1164V206.655H88.5338V144.457Z" fill="#102B6E"/>
<path d="M157.575 144.457H153.158V206.655H157.575V144.457Z" fill="#102B6E"/>
<path fill-rule="evenodd" clip-rule="evenodd" d="M88.0583 84.3267L89.5377 75.9202L91.0067 67.5059H85.3243L83.8553 75.9202L82.3785 84.3267H88.0583Z" fill="#00ADEE"/>
<path fill-rule="evenodd" clip-rule="evenodd" d="M98.0956 84.3267L100.174 72.4803L102.696 58.2335L96.9873 58.2153L94.4989 72.4803L92.4261 84.3267H98.0956Z" fill="#00ADEE"/>
<path fill-rule="evenodd" clip-rule="evenodd" d="M108.138 84.3261L110.772 69.2913L112.897 57.1338L107.22 57.1442L105.098 69.2913L102.463 84.3261H108.138Z" fill="#00ADEE"/>
<path fill-rule="evenodd" clip-rule="evenodd" d="M118.185 84.3265L121.628 64.6516L124.877 46.1069L119.192 46.1303L115.953 64.6516L112.505 84.3265H118.185Z" fill="#00ADEE"/>
<path fill-rule="evenodd" clip-rule="evenodd" d="M127.776 84.3257L131.733 61.7086L134.995 43.1017L129.315 43.0862L126.058 61.7086L122.101 84.3257H127.776Z" fill="#00ADEE"/>
<path fill-rule="evenodd" clip-rule="evenodd" d="M136.694 84.3261L140.651 61.7091L144.616 39.092H138.934L134.977 61.7091L131.019 84.3261H136.694Z" fill="#00ADEE"/>
<path fill-rule="evenodd" clip-rule="evenodd" d="M106.823 103.783H136.621C136.982 103.784 137.328 103.927 137.583 104.181C137.838 104.435 137.982 104.778 137.983 105.136C137.982 105.494 137.838 105.838 137.583 106.091C137.328 106.345 136.982 106.488 136.621 106.489H106.823C106.462 106.488 106.116 106.345 105.861 106.091C105.606 105.838 105.462 105.494 105.461 105.136C105.462 104.778 105.606 104.435 105.861 104.181C106.116 103.927 106.462 103.784 106.823 103.783Z" fill="#ACDBFC"/>
<path fill-rule="evenodd" clip-rule="evenodd" d="M104.319 113.49H134.315C134.676 113.492 135.022 113.635 135.278 113.888C135.533 114.142 135.676 114.485 135.677 114.844C135.677 115.202 135.534 115.546 135.278 115.8C135.023 116.053 134.677 116.196 134.315 116.197H104.319C103.957 116.196 103.611 116.053 103.355 115.8C103.099 115.546 102.955 115.202 102.955 114.844C102.956 114.485 103.1 114.142 103.356 113.888C103.611 113.635 103.957 113.492 104.319 113.49Z" fill="#ACDBFC"/>
<path fill-rule="evenodd" clip-rule="evenodd" d="M102.578 123.202H132.494C132.855 123.203 133.201 123.346 133.456 123.6C133.711 123.853 133.855 124.197 133.855 124.555C133.855 124.913 133.711 125.256 133.456 125.51C133.201 125.763 132.855 125.907 132.494 125.908H102.578C102.217 125.907 101.871 125.763 101.616 125.51C101.361 125.256 101.217 124.913 101.217 124.555C101.217 124.197 101.361 123.853 101.616 123.6C101.871 123.346 102.217 123.203 102.578 123.202Z" fill="#ACDBFC"/>
<path fill-rule="evenodd" clip-rule="evenodd" d="M93.0768 127.261C94.7131 119.601 96.7362 111.448 97.9908 104.273C98.057 103.977 98.0102 103.667 97.8596 103.404C97.709 103.14 97.4652 102.941 97.1753 102.845C97.0367 102.801 96.8921 102.779 96.7466 102.78H75.9301C75.1042 102.78 74.3801 103.467 74.1684 104.273L68.1331 127.302C68.0833 127.497 68.0785 127.7 68.1192 127.896C68.1599 128.092 68.2449 128.277 68.368 128.436C68.4911 128.595 68.6489 128.724 68.8296 128.814C69.0103 128.903 69.2092 128.951 69.4112 128.954L91.2602 128.588H91.2811C91.6888 128.604 92.0896 128.481 92.4165 128.239C92.7434 127.997 92.9765 127.65 93.0768 127.258" fill="#ACDBFC"/>
<path fill-rule="evenodd" clip-rule="evenodd" d="M73.3528 114.732L81.9758 109.346L83.3428 111.552L91.5764 106.149L91.1477 105.25L93.9288 105.408L92.8075 107.78L92.1697 106.906L82.9586 112.993L81.5393 110.683L73.8651 115.538L73.3528 114.732Z" fill="#51BBEB"/>
<path fill-rule="evenodd" clip-rule="evenodd" d="M73.2692 118.216H90.4134C90.5342 118.217 90.6499 118.265 90.7351 118.35C90.8203 118.435 90.8682 118.55 90.8682 118.67C90.8682 118.79 90.8202 118.904 90.735 118.989C90.6497 119.073 90.534 119.121 90.4134 119.121H73.2692C73.1484 119.121 73.0324 119.074 72.9467 118.989C72.861 118.905 72.8125 118.79 72.8118 118.67C72.8125 118.55 72.8609 118.435 72.9466 118.35C73.0322 118.265 73.1481 118.217 73.2692 118.216Z" fill="white"/>
<path fill-rule="evenodd" clip-rule="evenodd" d="M72.5244 121.299H89.6685C89.7891 121.299 89.9048 121.346 89.9901 121.431C90.0754 121.516 90.1233 121.63 90.1233 121.75C90.1233 121.87 90.0755 121.985 89.9902 122.07C89.905 122.155 89.7893 122.203 89.6685 122.204H72.5244C72.4033 122.203 72.2873 122.155 72.2017 122.07C72.1161 121.985 72.0676 121.87 72.067 121.75C72.0676 121.63 72.1162 121.515 72.2019 121.431C72.2876 121.346 72.4035 121.299 72.5244 121.299Z" fill="white"/>
<path fill-rule="evenodd" clip-rule="evenodd" d="M71.7795 124.389H88.9262C89.0468 124.389 89.1625 124.436 89.2478 124.521C89.3331 124.606 89.381 124.72 89.381 124.84C89.3813 124.899 89.3698 124.958 89.3471 125.013C89.3244 125.068 89.291 125.118 89.2487 125.161C89.2064 125.203 89.1562 125.236 89.1008 125.259C89.0455 125.282 88.9861 125.294 88.9262 125.294H71.7795C71.7195 125.294 71.6602 125.282 71.6048 125.259C71.5495 125.236 71.4992 125.203 71.457 125.161C71.4147 125.118 71.3812 125.068 71.3585 125.013C71.3358 124.958 71.3243 124.899 71.3247 124.84C71.3247 124.72 71.3726 124.606 71.4579 124.521C71.5432 124.436 71.6589 124.389 71.7795 124.389Z" fill="white"/>
<path d="M136.283 87.1541H81.7878V88.4398H136.283V87.1541Z" fill="#00ADEE"/>
<path fill-rule="evenodd" clip-rule="evenodd" d="M26.3066 111.912V126.428C26.3066 142.5 29.1609 177.832 30.196 197.351L41.0617 197.139L49.9801 126.742L66.7792 129.132L67.2601 109.882C66.4995 43.3373 31.9081 58.7532 34.9035 96.4025C35.2329 100.55 24.7096 107.37 26.3066 111.917" fill="#000446"/>
<path fill-rule="evenodd" clip-rule="evenodd" d="M67.1111 115.822H46.0176L53.2448 197.424L64.7012 197.72L67.1111 115.822Z" fill="#000446"/>
<path fill-rule="evenodd" clip-rule="evenodd" d="M54.3269 68.5421C58.0542 76.6687 62.6754 85.98 73.3398 87.5586C81.9916 88.8366 94.653 72.6586 95.8972 70.0197C97.1414 67.3808 92.4129 60.4881 90.8891 61.2866C89.3652 62.085 76.8214 71.7021 75.6766 71.6295C74.3383 71.5439 69.772 57.1131 61.4888 52.3668C60.1819 51.628 52.7246 65.0478 54.3269 68.5421Z" fill="#00ADEE"/>
<path fill-rule="evenodd" clip-rule="evenodd" d="M33.675 48.5035C28.4133 48.5035 23.1256 51.1553 20.8228 54.5667C17.2706 59.8289 27.7782 92.4441 24.8167 119.172H69.0897C69.3511 108.109 67.9736 74.5863 65.4591 55.8317C59.9439 47.21 42.149 48.5035 33.675 48.5035Z" fill="#00ADEE"/>
<path fill-rule="evenodd" clip-rule="evenodd" d="M50.3409 48.8955C56.8598 52.3976 58.3627 79.2555 60.1584 119.186H43.6051C42.8941 79.9762 35.4708 55.2102 32.9982 48.5171C38.3147 48.1697 43.8325 47.8872 50.3409 48.8955Z" fill="#C4E8FA"/>
<path fill-rule="evenodd" clip-rule="evenodd" d="M50.3409 48.8957C56.8597 52.3978 58.2006 73.4181 59.9963 113.346H58.0856C58.7077 100.626 56.716 53.7872 49.6743 48.7998L50.3409 48.9009" fill="#C4E8FA"/>
<path fill-rule="evenodd" clip-rule="evenodd" d="M30.3791 62.2401C32.3003 58.3103 31.9474 54.7926 28.2488 52.3508C24.5633 49.9089 21.4189 52.8873 19.4977 56.8171C15.726 64.5264 12.9632 81.7024 16.9571 86.6095C20.2192 90.6067 40.0319 90.4252 42.7738 89.6916C43.4142 89.5205 47.9806 85.1812 46.6946 81.4769C46.5587 81.0829 45.7405 80.9221 45.0975 80.917C41.365 80.8936 29.3806 79.4057 27.7208 78.5166C25.107 77.1194 29.0277 64.993 30.366 62.2401" fill="#00ADEE"/>
<path fill-rule="evenodd" clip-rule="evenodd" d="M45.2987 81.801C43.8114 82.6823 42.5542 84.6317 41.885 86.6043C41.1323 88.8207 40.8395 89.9302 43.3462 89.1369C45.1053 88.5796 47.3741 87.8408 47.3741 87.8408C49.2482 85.7282 49.8729 83.0064 49.3815 81.2644L45.2987 81.801Z" fill="white"/>
<path fill-rule="evenodd" clip-rule="evenodd" d="M91.3205 62.2189C90.9206 64.7126 93.2626 68.7357 95.04 69.4486C95.2386 69.0961 96.4279 67.5744 97.2173 66.4053C98.9084 63.8935 94.9145 58.6442 93.7435 59.8081L91.3205 62.2189Z" fill="white"/>
<path fill-rule="evenodd" clip-rule="evenodd" d="M96.0279 58.2738C96.2893 57.128 97.3348 52.5968 98.1764 51.8347C98.6103 51.4485 98.6992 51.6247 98.9057 51.871C99.1159 52.2356 99.2072 52.6557 99.1671 53.0738C99.1114 53.7651 99.0136 54.4524 98.8743 55.132C101.441 52.9131 104.086 50.9689 106.041 48.9522C106.826 48.133 108.133 48.2652 107.348 49.8569C106.763 51.0467 103.634 54.1884 103.634 54.1884C105.278 57.2187 104.099 59.2355 103.982 59.2769C103.935 59.2925 101.297 61.3507 100.845 61.6851C99.0155 62.5691 98.1791 64.197 96.8957 65.5216C96.1873 64.9824 94.4021 62.9294 94.1485 60.389L96.0279 58.2738Z" fill="#F7AAAC"/>
<path fill-rule="evenodd" clip-rule="evenodd" d="M79.9739 68.6091H59.756L52.1236 94.0154H72.3441L79.9739 68.6091Z" fill="#EC830E"/>
<path fill-rule="evenodd" clip-rule="evenodd" d="M49.1621 81.6376L51.9955 81.1736L55.2288 79.0429C55.2288 79.0429 56.5148 77.6301 56.9853 77.8323C57.0768 77.8686 56.2299 80.4971 56.3292 80.5749C57.1708 81.2203 62.5867 80.3934 62.5579 80.4867C59.9676 89.0954 54.2852 84.9297 48.0983 86.8868C47.186 87.1746 47.0109 87.0709 47.0527 86.2906C47.139 85.0645 47.8552 83.0582 49.1438 81.6247" fill="#F7AAAC"/>
<path fill-rule="evenodd" clip-rule="evenodd" d="M74.7671 67.8987H72.5061C72.5074 67.8823 72.5074 67.8659 72.5061 67.8495C72.5061 67.5203 71.8265 67.2559 70.9849 67.2559C70.1432 67.2559 69.4663 67.5151 69.4663 67.8495C69.465 67.8659 69.465 67.8823 69.4663 67.8987H66.8028L66.2408 69.7651H74.043L74.7671 67.8987Z" fill="white"/>
<path fill-rule="evenodd" clip-rule="evenodd" d="M46.8697 65.4154C46.7082 65.4322 46.5553 65.4961 46.4305 65.5991C46.3056 65.7021 46.2144 65.8395 46.1683 65.9939C46.1222 66.1483 46.1234 66.3128 46.1716 66.4666C46.2198 66.6204 46.313 66.7565 46.4392 66.8578C46.5655 66.9591 46.7192 67.0209 46.8809 67.0355C47.0426 67.0501 47.2051 67.0168 47.3477 66.9398C47.4903 66.8628 47.6067 66.7456 47.6821 66.603C47.7576 66.4604 47.7887 66.2988 47.7714 66.1386C47.7484 65.9242 47.6405 65.7276 47.4714 65.592C47.3023 65.4564 47.0859 65.3929 46.8697 65.4154ZM46.3652 60.7183C46.2037 60.7351 46.0508 60.7991 45.926 60.902C45.8012 61.005 45.7099 61.1424 45.6639 61.2968C45.6178 61.4513 45.6189 61.6158 45.6671 61.7695C45.7154 61.9233 45.8085 62.0594 45.9347 62.1607C46.061 62.262 46.2147 62.3238 46.3764 62.3384C46.5382 62.353 46.7006 62.3197 46.8432 62.2427C46.9859 62.1657 47.1023 62.0485 47.1777 61.9059C47.2531 61.7633 47.2842 61.6017 47.267 61.4415C47.2433 61.2274 47.1352 61.0312 46.9663 60.8957C46.7974 60.7603 46.5813 60.6965 46.3652 60.7183ZM47.1729 49.5718C48.979 52.6073 47.8132 56.1664 45.1994 57.9991C41.0173 55.8916 37.3109 53.4964 36.7986 48.7449C36.4752 48.7901 36.1682 48.9139 35.9047 49.1052C35.2458 49.5965 34.7755 50.2961 34.5716 51.0882C33.4947 54.6914 38.1055 61.2575 38.1055 61.2575C38.1055 61.2575 39.0151 58.1183 41.2552 57.6906C42.6315 57.4474 44.0503 57.6876 45.2674 58.3698C47.9309 55.9538 50.197 58.476 52.3482 60.2724C52.4083 55.101 52.4423 52.978 48.1661 49.4318L47.1703 49.2581L47.1729 49.5718Z" fill="white"/>
<path fill-rule="evenodd" clip-rule="evenodd" d="M53.5975 42.6742C51.9324 44.6624 50.0113 46.267 48.0352 46.7025V48.8411L48.4195 49.3595C49.8257 51.791 48.4195 55.9619 46.0906 57.1517C42.4312 55.8556 38.155 53.3619 37.1643 48.8566L37.8152 48.2578L38.7039 47.6409L39.1378 42.3061C38.8764 42.2258 37.1016 40.6134 36.5423 40.2894C35.9829 39.9654 35.366 38.6044 35.5934 37.3705C35.8208 36.1366 37.6244 36.9688 37.6244 36.9688C36.0561 33.3137 34.0513 30.159 38.087 28.1241C42.1228 26.0892 50.2596 26.2448 50.2596 26.2448L55.3043 25.7263C54.3346 27.1909 54.4992 32.0565 54.9174 35.6649C55.2886 38.9026 55.8323 40.0146 53.5948 42.682" fill="#F7AAAC"/>
<path fill-rule="evenodd" clip-rule="evenodd" d="M41.1846 43.4592C41.1846 43.4592 42.7712 48.5685 44.8439 49.4783C46.9167 50.3882 47.1964 50.256 48.0354 50.3623V46.7021C46.4854 46.5932 44.4309 46.0748 41.1846 43.4592Z" fill="#EA8287"/>
<path fill-rule="evenodd" clip-rule="evenodd" d="M50.9891 31.6443C45.4399 32.1913 42.9568 29.078 40.7612 30.6645C39.6425 32.2379 39.6947 34.5113 40.9572 38.3063C41.2186 39.2266 41.663 39.9291 40.2515 39.084C39.6033 38.6926 38.5263 38.1275 38.1055 38.3919C37.1724 38.9829 37.439 40.4656 38.0689 41.0178C38.3486 41.2589 38.8923 41.6347 38.8923 41.6347C38.2893 41.7516 37.6679 41.7353 37.072 41.587C36.4761 41.4387 35.9205 41.1621 35.4447 40.7767C33.7953 39.4547 30.0367 35.7841 30.7398 30.1175C31.6232 23.0978 35.6119 23.4374 41.7361 19.9145C46.1953 17.3457 44.1565 18.3592 45.4634 17.7423C57.4112 12.0627 62.1187 28.1111 50.9812 31.6547" fill="#000446"/>
</g>
<defs>
<linearGradient id="paint0_linear_20_16" x1="211.5" y1="206.753" x2="-27.293" y2="-7.10779" gradientUnits="userSpaceOnUse">
<stop stop-color="#00ADEE" stop-opacity="0.65"/>
<stop offset="1" stop-color="#86DEFF" stop-opacity="0"/>
</linearGradient>
<linearGradient id="paint1_linear_20_16" x1="114.463" y1="128.448" x2="114.463" y2="35.8438" gradientUnits="userSpaceOnUse">
<stop stop-color="#1E9DF8"/>
<stop offset="0.12" stop-color="#41ACF9"/>
<stop offset="0.35" stop-color="#7DC7FB"/>
<stop offset="0.56" stop-color="#ADDBFD"/>
<stop offset="0.75" stop-color="#CFEAFE"/>
<stop offset="0.9" stop-color="#E4F4FF"/>
<stop offset="1" stop-color="#ECF7FF"/>
</linearGradient>
</defs>
</svg>
